EBGaramondVF-Compressed_XBold.ufo
<glyph name="percent" format="1">
  <advance width="773"/>
  <unicode hex="0025"/>
  <outline>
    <contour>
      <point x="134" y="-25" type="curve" smooth="yes"/>
      <point x="722" y="620" type="line"/>
      <point x="724" y="622"/>
      <point x="725" y="627"/>
      <point x="725" y="630" type="curve" smooth="yes"/>
      <point x="725" y="642"/>
      <point x="719" y="659"/>
      <point x="712" y="661" type="curve" smooth="yes"/>
      <point x="691" y="664"/>
      <point x="677" y="660"/>
      <point x="664" y="630" type="curve" smooth="yes"/>
      <point x="62" y="-20" type="line"/>
      <point x="61" y="-21"/>
      <point x="61" y="-25"/>
      <point x="61" y="-26" type="curve" smooth="yes"/>
      <point x="61" y="-40"/>
      <point x="71" y="-56"/>
      <point x="81" y="-57" type="curve" smooth="yes"/>
      <point x="97" y="-59"/>
      <point x="110" y="-57"/>
    </contour>
    <contour>
      <point x="370" y="449" type="curve" smooth="yes"/>
      <point x="370" y="530"/>
      <point x="311" y="615"/>
      <point x="203" y="615" type="curve" smooth="yes"/>
      <point x="83" y="615"/>
      <point x="8" y="527"/>
      <point x="8" y="438" type="curve" smooth="yes"/>
      <point x="8" y="354"/>
      <point x="65" y="263"/>
      <point x="179" y="263" type="curve" smooth="yes"/>
      <point x="302" y="263"/>
      <point x="370" y="358"/>
    </contour>
    <contour>
      <point x="163" y="448" type="curve" smooth="yes"/>
      <point x="163" y="502"/>
      <point x="167" y="571"/>
      <point x="189" y="571" type="curve" smooth="yes"/>
      <point x="211" y="571"/>
      <point x="214" y="497"/>
      <point x="214" y="437" type="curve" smooth="yes"/>
      <point x="214" y="378"/>
      <point x="213" y="304"/>
      <point x="190" y="304" type="curve" smooth="yes"/>
      <point x="165" y="304"/>
      <point x="163" y="385"/>
    </contour>
    <contour>
      <point x="766" y="169" type="curve" smooth="yes"/>
      <point x="766" y="250"/>
      <point x="707" y="335"/>
      <point x="599" y="335" type="curve" smooth="yes"/>
      <point x="479" y="335"/>
      <point x="404" y="247"/>
      <point x="404" y="158" type="curve" smooth="yes"/>
      <point x="404" y="74"/>
      <point x="461" y="-17"/>
      <point x="575" y="-17" type="curve" smooth="yes"/>
      <point x="698" y="-17"/>
      <point x="766" y="78"/>
    </contour>
    <contour>
      <point x="559" y="168" type="curve" smooth="yes"/>
      <point x="559" y="222"/>
      <point x="563" y="291"/>
      <point x="585" y="291" type="curve" smooth="yes"/>
      <point x="607" y="291"/>
      <point x="610" y="217"/>
      <point x="610" y="157" type="curve" smooth="yes"/>
      <point x="610" y="98"/>
      <point x="609" y="24"/>
      <point x="586" y="24" type="curve" smooth="yes"/>
      <point x="561" y="24"/>
      <point x="559" y="105"/>
    </contour>
  </outline>
</glyph>
<glyph name="ampersand" format="1">
  <advance width="613"/>
  <unicode hex="0026"/>
  <outline>
    <contour>
      <point x="319" y="82" type="curve"/>
      <point x="329" y="92" type="line"/>
      <point x="333" y="87" type="line" smooth="yes"/>
      <point x="369" y="25"/>
      <point x="383" y="-14"/>
      <point x="463" y="-14" type="curve" smooth="yes"/>
      <point x="516" y="-14"/>
      <point x="586" y="32"/>
      <point x="586" y="53" type="curve" smooth="yes"/>
      <point x="586" y="62"/>
      <point x="582" y="69"/>
      <point x="577" y="69" type="curve" smooth="yes"/>
      <point x="573" y="69"/>
      <point x="568" y="66"/>
      <point x="565" y="63" type="curve" smooth="yes"/>
      <point x="550" y="49"/>
      <point x="537" y="43"/>
      <point x="520" y="43" type="curve" smooth="yes"/>
      <point x="488" y="43"/>
      <point x="465" y="81"/>
      <point x="432" y="141" type="curve" smooth="yes"/>
      <point x="423" y="163" type="line"/>
      <point x="423" y="163"/>
      <point x="508" y="305"/>
      <point x="517" y="316" type="curve" smooth="yes"/>
      <point x="533" y="339"/>
      <point x="559" y="353"/>
      <point x="576" y="355" type="curve"/>
      <point x="594" y="357"/>
      <point x="602" y="368"/>
      <point x="602" y="383" type="curve" smooth="yes"/>
      <point x="602" y="392"/>
      <point x="597" y="401"/>
      <point x="590" y="401" type="curve" smooth="yes"/>
      <point x="570" y="401"/>
      <point x="522" y="398"/>
      <point x="498" y="398" type="curve" smooth="yes"/>
      <point x="486" y="398"/>
      <point x="430" y="406"/>
      <point x="425" y="406" type="curve" smooth="yes"/>
      <point x="418" y="406"/>
      <point x="407" y="401"/>
      <point x="407" y="385" type="curve" smooth="yes"/>
      <point x="407" y="375"/>
      <point x="415" y="369"/>
      <point x="420" y="367" type="curve"/>
      <point x="424" y="364"/>
      <point x="437" y="356"/>
      <point x="436" y="338" type="curve" smooth="yes"/>
      <point x="435" y="323"/>
      <point x="429" y="274"/>
      <point x="410" y="224" type="curve" smooth="yes"/>
      <point x="402" y="205" type="line"/>
      <point x="393" y="221" type="line" smooth="yes"/>
      <point x="365" y="273"/>
      <point x="372" y="285"/>
      <point x="345" y="339" type="curve" smooth="yes"/>
      <point x="338" y="353" type="line"/>
      <point x="348" y="361" type="line" smooth="yes"/>
      <point x="385" y="390"/>
      <point x="451" y="430"/>
      <point x="451" y="490" type="curve" smooth="yes"/>
      <point x="451" y="536"/>
      <point x="410" y="599"/>
      <point x="303" y="599" type="curve" smooth="yes"/>
      <point x="224" y="599"/>
      <point x="142" y="554"/>
      <point x="142" y="484" type="curve" smooth="yes"/>
      <point x="142" y="434"/>
      <point x="164" y="410"/>
      <point x="186" y="377" type="curve"/>
      <point x="199" y="357" type="line"/>
      <point x="181" y="348" type="line" smooth="yes"/>
      <point x="83" y="304"/>
      <point x="17" y="233"/>
      <point x="17" y="127" type="curve" smooth="yes"/>
      <point x="17" y="45"/>
      <point x="73" y="-14"/>
      <point x="156" y="-14" type="curve" smooth="yes"/>
      <point x="223" y="-14"/>
      <point x="274" y="15"/>
    </contour>
    <contour>
      <point x="173" y="160" type="curve" smooth="yes"/>
      <point x="173" y="219"/>
      <point x="186" y="270"/>
      <point x="221" y="305" type="curve" smooth="yes"/>
      <point x="228" y="311" type="line"/>
      <point x="234" y="300" type="line" smooth="yes"/>
      <point x="264" y="239"/>
      <point x="270" y="199"/>
      <point x="296" y="154" type="curve" smooth="yes"/>
      <point x="304" y="141" type="line"/>
      <point x="293" y="130" type="line" smooth="yes"/>
      <point x="262" y="89"/>
      <point x="246" y="49"/>
      <point x="226" y="49" type="curve" smooth="yes"/>
      <point x="196" y="49"/>
      <point x="173" y="94"/>
    </contour>
    <contour>
      <point x="302" y="404" type="line" smooth="yes"/>
      <point x="276" y="444"/>
      <point x="275" y="463"/>
      <point x="275" y="487" type="curve" smooth="yes"/>
      <point x="275" y="520"/>
      <point x="292" y="555"/>
      <point x="308" y="555" type="curve" smooth="yes"/>
      <point x="328" y="555"/>
      <point x="340" y="525"/>
      <point x="340" y="480" type="curve" smooth="yes"/>
      <point x="340" y="455"/>
      <point x="331" y="416"/>
      <point x="320" y="401" type="curve" smooth="yes"/>
      <point x="310" y="391" type="line"/>
    </contour>
  </outline>
</glyph>
<glyph name="asterisk" format="1">
  <advance width="196"/>
  <unicode hex="002A"/>
  <outline>
    <contour>
      <point x="131" y="395" type="curve"/>
      <point x="129" y="424"/>
      <point x="127" y="456"/>
      <point x="126" y="478" type="curve"/>
      <point x="137" y="468"/>
      <point x="144" y="451"/>
      <point x="153" y="445" type="curve" smooth="yes"/>
      <point x="163" y="440"/>
      <point x="181" y="449"/>
      <point x="181" y="466" type="curve" smooth="yes"/>
      <point x="181" y="476"/>
      <point x="179" y="486"/>
      <point x="174" y="490" type="curve"/>
      <point x="162" y="505"/>
      <point x="145" y="515"/>
      <point x="137" y="524" type="curve"/>
      <point x="169" y="574" type="line"/>
      <point x="174" y="580"/>
      <point x="175" y="591"/>
      <point x="175" y="598" type="curve" smooth="yes"/>
      <point x="175" y="610"/>
      <point x="165" y="620"/>
      <point x="158" y="620" type="curve" smooth="yes"/>
      <point x="154" y="620"/>
      <point x="148" y="616"/>
      <point x="144" y="613" type="curve"/>
      <point x="133" y="596"/>
      <point x="126" y="578"/>
      <point x="119" y="566" type="curve"/>
      <point x="117" y="645" type="line" smooth="yes"/>
      <point x="115" y="659"/>
      <point x="104" y="671"/>
      <point x="93" y="672" type="curve" smooth="yes"/>
      <point x="80" y="671"/>
      <point x="65" y="661"/>
      <point x="67" y="638" type="curve" smooth="yes"/>
      <point x="69" y="611"/>
      <point x="70" y="587"/>
      <point x="73" y="560" type="curve"/>
      <point x="59" y="571"/>
      <point x="49" y="582"/>
      <point x="40" y="592" type="curve"/>
      <point x="28" y="599"/>
      <point x="14" y="593"/>
      <point x="14" y="577" type="curve" smooth="yes"/>
      <point x="14" y="567"/>
      <point x="19" y="554"/>
      <point x="29" y="548" type="curve"/>
      <point x="37" y="536"/>
      <point x="53" y="524"/>
      <point x="60" y="514" type="curve"/>
      <point x="28" y="466" type="line"/>
      <point x="22" y="461"/>
      <point x="20" y="451"/>
      <point x="20" y="442" type="curve" smooth="yes"/>
      <point x="20" y="430"/>
      <point x="30" y="422"/>
      <point x="37" y="422" type="curve" smooth="yes"/>
      <point x="40" y="422"/>
      <point x="47" y="424"/>
      <point x="52" y="430" type="curve"/>
      <point x="63" y="443"/>
      <point x="72" y="460"/>
      <point x="79" y="472" type="curve"/>
      <point x="82" y="389" type="line" smooth="yes"/>
      <point x="84" y="371"/>
      <point x="99" y="366"/>
      <point x="107" y="366" type="curve" smooth="yes"/>
      <point x="119" y="366"/>
      <point x="132" y="378"/>
    </contour>
  </outline>
</glyph>
<glyph name="one" format="1">
  <advance width="570"/>
  <unicode hex="0031"/>
  <outline>
    <contour>
      <point x="280" y="2" type="curve" smooth="yes"/>
      <point x="328" y="2"/>
      <point x="381" y="-3"/>
      <point x="427" y="-3" type="curve" smooth="yes"/>
      <point x="440" y="-3"/>
      <point x="445" y="5"/>
      <point x="445" y="15" type="curve" smooth="yes"/>
      <point x="445" y="25"/>
      <point x="443" y="33"/>
      <point x="434" y="37" type="curve" smooth="yes"/>
      <point x="395" y="57"/>
      <point x="384" y="65"/>
      <point x="384" y="136" type="curve" smooth="yes"/>
      <point x="384" y="557" type="line" smooth="yes"/>
      <point x="384" y="585"/>
      <point x="386" y="602"/>
      <point x="386" y="622" type="curve"/>
      <point x="386" y="630"/>
      <point x="381" y="638"/>
      <point x="371" y="638" type="curve" smooth="yes"/>
      <point x="358" y="638"/>
      <point x="344" y="631"/>
      <point x="318" y="610" type="curve" smooth="yes"/>
      <point x="287" y="590"/>
      <point x="229" y="580"/>
      <point x="154" y="574" type="curve" smooth="yes"/>
      <point x="132" y="571"/>
      <point x="119" y="563"/>
      <point x="119" y="551" type="curve" smooth="yes"/>
      <point x="119" y="538"/>
      <point x="126" y="531"/>
      <point x="136" y="529" type="curve" smooth="yes"/>
      <point x="163" y="523"/>
      <point x="174" y="515"/>
      <point x="174" y="469" type="curve" smooth="yes"/>
      <point x="174" y="140" type="line" smooth="yes"/>
      <point x="174" y="64"/>
      <point x="156" y="57"/>
      <point x="124" y="38" type="curve" smooth="yes"/>
      <point x="115" y="35"/>
      <point x="112" y="26"/>
      <point x="112" y="16" type="curve" smooth="yes"/>
      <point x="112" y="6"/>
      <point x="117" y="-3"/>
      <point x="129" y="-3" type="curve" smooth="yes"/>
      <point x="174" y="-3"/>
      <point x="231" y="2"/>
    </contour>
  </outline>
</glyph>
<glyph name="two" format="1">
  <advance width="570"/>
  <unicode hex="0032"/>
  <outline>
    <contour>
      <point x="451" y="31" type="curve" smooth="yes"/>
      <point x="457" y="102"/>
      <point x="467" y="178"/>
      <point x="467" y="190" type="curve" smooth="yes"/>
      <point x="467" y="196"/>
      <point x="459" y="208"/>
      <point x="444" y="208" type="curve" smooth="yes"/>
      <point x="430" y="208"/>
      <point x="421" y="199"/>
      <point x="413" y="178" type="curve" smooth="yes"/>
      <point x="401" y="147"/>
      <point x="381" y="121"/>
      <point x="352" y="120" type="curve" smooth="yes"/>
      <point x="339" y="119"/>
      <point x="302" y="119"/>
      <point x="283" y="119" type="curve" smooth="yes"/>
      <point x="257" y="119"/>
      <point x="266" y="118"/>
      <point x="251" y="122" type="curve" smooth="yes"/>
      <point x="245" y="123"/>
      <point x="241" y="124"/>
      <point x="241" y="129" type="curve" smooth="yes"/>
      <point x="295" y="179"/>
      <point x="289" y="195"/>
      <point x="333" y="234" type="curve" smooth="yes"/>
      <point x="370" y="277"/>
      <point x="436" y="398"/>
      <point x="436" y="486" type="curve" smooth="yes"/>
      <point x="436" y="573"/>
      <point x="374" y="630"/>
      <point x="256" y="630" type="curve" smooth="yes"/>
      <point x="131" y="630"/>
      <point x="96" y="538"/>
      <point x="88" y="490" type="curve" smooth="yes"/>
      <point x="85" y="467"/>
      <point x="101" y="453"/>
      <point x="112" y="453" type="curve" smooth="yes"/>
      <point x="123" y="453"/>
      <point x="133" y="472"/>
      <point x="137" y="483" type="curve"/>
      <point x="154" y="529"/>
      <point x="157" y="566"/>
      <point x="179" y="566" type="curve" smooth="yes"/>
      <point x="203" y="566"/>
      <point x="219" y="527"/>
      <point x="219" y="452" type="curve" smooth="yes"/>
      <point x="219" y="373"/>
      <point x="180" y="281"/>
      <point x="154" y="209" type="curve" smooth="yes"/>
      <point x="90" y="28" type="line" smooth="yes"/>
      <point x="88" y="22"/>
      <point x="85" y="21"/>
      <point x="85" y="15" type="curve" smooth="yes"/>
      <point x="85" y="9"/>
      <point x="93" y="-2"/>
      <point x="95" y="-2" type="curve" smooth="yes"/>
      <point x="113" y="-2"/>
      <point x="280" y="3"/>
      <point x="323" y="3" type="curve" smooth="yes"/>
      <point x="367" y="3"/>
      <point x="422" y="-3"/>
      <point x="440" y="-3" type="curve" smooth="yes"/>
      <point x="444" y="-3"/>
      <point x="449" y="1"/>
    </contour>
  </outline>
</glyph>
<glyph name="three" format="1">
  <advance width="570"/>
  <unicode hex="0033"/>
  <outline>
    <contour>
      <point x="465" y="203" type="curve" smooth="yes"/>
      <point x="465" y="303"/>
      <point x="392" y="358"/>
      <point x="312" y="356" type="curve" smooth="yes"/>
      <point x="311" y="357"/>
      <point x="311" y="360"/>
      <point x="312" y="362" type="curve"/>
      <point x="393" y="399"/>
      <point x="435" y="455"/>
      <point x="435" y="516" type="curve" smooth="yes"/>
      <point x="435" y="584"/>
      <point x="371" y="630"/>
      <point x="298" y="630" type="curve" smooth="yes"/>
      <point x="149" y="630"/>
      <point x="108" y="541"/>
      <point x="108" y="500" type="curve" smooth="yes"/>
      <point x="108" y="490"/>
      <point x="117" y="466"/>
      <point x="140" y="466" type="curve" smooth="yes"/>
      <point x="148" y="466"/>
      <point x="169" y="563"/>
      <point x="192" y="563" type="curve" smooth="yes"/>
      <point x="213" y="563"/>
      <point x="224" y="526"/>
      <point x="224" y="474" type="curve" smooth="yes"/>
      <point x="224" y="409"/>
      <point x="214" y="362"/>
      <point x="170" y="338" type="curve" smooth="yes"/>
      <point x="163" y="332"/>
      <point x="154" y="319"/>
      <point x="156" y="292" type="curve" smooth="yes"/>
      <point x="157" y="279"/>
      <point x="161" y="270"/>
      <point x="165" y="274" type="curve" smooth="yes"/>
      <point x="175" y="286"/>
      <point x="187" y="289"/>
      <point x="193" y="289" type="curve" smooth="yes"/>
      <point x="228" y="289"/>
      <point x="250" y="217"/>
      <point x="250" y="149" type="curve" smooth="yes"/>
      <point x="250" y="76"/>
      <point x="213" y="20"/>
      <point x="179" y="20" type="curve" smooth="yes"/>
      <point x="161" y="20"/>
      <point x="155" y="36"/>
      <point x="144" y="50" type="curve" smooth="yes"/>
      <point x="137" y="59"/>
      <point x="128" y="68"/>
      <point x="119" y="68" type="curve" smooth="yes"/>
      <point x="108" y="68"/>
      <point x="92" y="44"/>
      <point x="92" y="25" type="curve" smooth="yes"/>
      <point x="92" y="-15"/>
      <point x="157" y="-38"/>
      <point x="202" y="-38" type="curve" smooth="yes"/>
      <point x="331" y="-38"/>
      <point x="465" y="53"/>
    </contour>
  </outline>
</glyph>
<glyph name="five" format="1">
  <advance width="570"/>
  <unicode hex="0035"/>
  <outline>
    <contour>
      <point x="330" y="9" type="curve" smooth="yes"/>
      <point x="403" y="50"/>
      <point x="448" y="123"/>
      <point x="448" y="195" type="curve" smooth="yes"/>
      <point x="448" y="289"/>
      <point x="407" y="341"/>
      <point x="298" y="372" type="curve" smooth="yes"/>
      <point x="259" y="390"/>
      <point x="223" y="400"/>
      <point x="196" y="408" type="curve" smooth="yes"/>
      <point x="190" y="412"/>
      <point x="188" y="418"/>
      <point x="188" y="427" type="curve"/>
      <point x="190" y="443"/>
      <point x="201" y="493"/>
      <point x="206" y="495" type="curve" smooth="yes"/>
      <point x="239" y="500"/>
      <point x="332" y="506"/>
      <point x="387" y="513" type="curve" smooth="yes"/>
      <point x="397" y="515"/>
      <point x="404" y="528"/>
      <point x="412" y="555" type="curve" smooth="yes"/>
      <point x="415" y="568"/>
      <point x="421" y="584"/>
      <point x="424" y="598" type="curve" smooth="yes"/>
      <point x="428" y="610"/>
      <point x="423" y="621"/>
      <point x="410" y="620" type="curve" smooth="yes"/>
      <point x="333" y="615"/>
      <point x="268" y="611"/>
      <point x="195" y="592" type="curve" smooth="yes"/>
      <point x="180" y="587"/>
      <point x="169" y="576"/>
      <point x="163" y="556" type="curve" smooth="yes"/>
      <point x="150" y="514"/>
      <point x="129" y="431"/>
      <point x="129" y="359" type="curve" smooth="yes"/>
      <point x="129" y="342"/>
      <point x="132" y="330"/>
      <point x="140" y="317" type="curve"/>
      <point x="213" y="275"/>
      <point x="240" y="251"/>
      <point x="240" y="175" type="curve" smooth="yes"/>
      <point x="240" y="102"/>
      <point x="210" y="27"/>
      <point x="145" y="15" type="curve" smooth="yes"/>
      <point x="133" y="14"/>
      <point x="127" y="1"/>
      <point x="127" y="-13" type="curve" smooth="yes"/>
      <point x="127" y="-28"/>
      <point x="134" y="-38"/>
      <point x="147" y="-38" type="curve" smooth="yes"/>
      <point x="216" y="-38"/>
      <point x="279" y="-20"/>
    </contour>
  </outline>
</glyph>
<glyph name="seven" format="1">
  <advance width="570"/>
  <unicode hex="0037"/>
  <outline>
    <contour>
      <point x="268" y="-5" type="curve" smooth="yes"/>
      <point x="419" y="538" type="line" smooth="yes"/>
      <point x="424" y="555"/>
      <point x="439" y="592"/>
      <point x="439" y="608" type="curve" smooth="yes"/>
      <point x="439" y="613"/>
      <point x="438" y="621"/>
      <point x="435" y="621" type="curve" smooth="yes"/>
      <point x="423" y="622"/>
      <point x="354" y="616"/>
      <point x="294" y="616" type="curve" smooth="yes"/>
      <point x="265" y="616"/>
      <point x="251" y="617"/>
      <point x="233" y="617" type="curve" smooth="yes"/>
      <point x="208" y="617"/>
      <point x="184" y="626"/>
      <point x="181" y="626" type="curve" smooth="yes"/>
      <point x="178" y="626"/>
      <point x="171" y="622"/>
      <point x="171" y="606" type="curve" smooth="yes"/>
      <point x="169" y="562"/>
      <point x="160" y="481"/>
      <point x="152" y="429" type="curve"/>
      <point x="150" y="420"/>
      <point x="148" y="403"/>
      <point x="148" y="390" type="curve" smooth="yes"/>
      <point x="148" y="381"/>
      <point x="148" y="365"/>
      <point x="158" y="365" type="curve" smooth="yes"/>
      <point x="165" y="365"/>
      <point x="173" y="378"/>
      <point x="178" y="390" type="curve" smooth="yes"/>
      <point x="192" y="427"/>
      <point x="206" y="436"/>
      <point x="222" y="436" type="curve" smooth="yes"/>
      <point x="339" y="436" type="line"/>
      <point x="376" y="588" type="line"/>
      <point x="232" y="61" type="line" smooth="yes"/>
      <point x="223" y="37"/>
      <point x="216" y="13"/>
      <point x="216" y="7" type="curve" smooth="yes"/>
      <point x="216" y="-15"/>
      <point x="224" y="-32"/>
      <point x="248" y="-32" type="curve" smooth="yes"/>
      <point x="254" y="-32"/>
      <point x="264" y="-19"/>
    </contour>
  </outline>
</glyph>
<glyph name="less" format="1">
  <advance width="332"/>
  <unicode hex="003C"/>
  <outline>
    <contour>
      <point x="308" y="118" type="curve" smooth="yes"/>
      <point x="308" y="130"/>
      <point x="302" y="175"/>
      <point x="273" y="186" type="curve" smooth="yes"/>
      <point x="138" y="236" type="line"/>
      <point x="134" y="237"/>
      <point x="132" y="241"/>
      <point x="137" y="243" type="curve"/>
      <point x="264" y="303" type="line" smooth="yes"/>
      <point x="292" y="317"/>
      <point x="307" y="359"/>
      <point x="307" y="376" type="curve" smooth="yes"/>
      <point x="307" y="384"/>
      <point x="303" y="390"/>
      <point x="295" y="390" type="curve" smooth="yes"/>
      <point x="293" y="390"/>
      <point x="287" y="387"/>
      <point x="283" y="386" type="curve" smooth="yes"/>
      <point x="71" y="290" type="line" smooth="yes"/>
      <point x="43" y="276"/>
      <point x="25" y="237"/>
      <point x="25" y="225" type="curve" smooth="yes"/>
      <point x="25" y="216"/>
      <point x="60" y="196"/>
      <point x="83" y="187" type="curve" smooth="yes"/>
      <point x="280" y="105" type="line" smooth="yes"/>
      <point x="289" y="101"/>
      <point x="308" y="100"/>
    </contour>
  </outline>
</glyph>
<glyph name="equal" format="1">
  <advance width="298"/>
  <unicode hex="003D"/>
  <outline>
    <contour>
      <point x="242" y="305" type="line" smooth="yes"/>
      <point x="262" y="305"/>
      <point x="272" y="339"/>
      <point x="272" y="361" type="curve" smooth="yes"/>
      <point x="272" y="370"/>
      <point x="267" y="375"/>
      <point x="260" y="375" type="curve" smooth="yes"/>
      <point x="49" y="375" type="line" smooth="yes"/>
      <point x="31" y="375"/>
      <point x="25" y="332"/>
      <point x="25" y="320" type="curve" smooth="yes"/>
      <point x="25" y="312"/>
      <point x="32" y="305"/>
      <point x="39" y="305" type="curve" smooth="yes"/>
    </contour>
    <contour>
      <point x="242" y="132" type="line" smooth="yes"/>
      <point x="262" y="132"/>
      <point x="272" y="169"/>
      <point x="272" y="189" type="curve" smooth="yes"/>
      <point x="272" y="197"/>
      <point x="267" y="202"/>
      <point x="260" y="202" type="curve" smooth="yes"/>
      <point x="49" y="202" type="line" smooth="yes"/>
      <point x="31" y="202"/>
      <point x="25" y="160"/>
      <point x="25" y="148" type="curve" smooth="yes"/>
      <point x="25" y="140"/>
      <point x="32" y="132"/>
      <point x="39" y="132" type="curve" smooth="yes"/>
    </contour>
  </outline>
</glyph>
<glyph name="question" format="1">
  <advance width="282"/>
  <unicode hex="003F"/>
  <outline>
    <contour>
      <point x="130" y="187" type="curve" smooth="yes"/>
      <point x="135" y="229"/>
      <point x="141" y="252"/>
      <point x="165" y="275" type="curve" smooth="yes"/>
      <point x="174" y="283"/>
      <point x="192" y="292"/>
      <point x="202" y="300" type="curve" smooth="yes"/>
      <point x="224" y="314"/>
      <point x="246" y="342"/>
      <point x="246" y="397" type="curve" smooth="yes"/>
      <point x="246" y="452"/>
      <point x="216" y="542"/>
      <point x="174" y="603" type="curve" smooth="yes"/>
      <point x="146" y="639"/>
      <point x="112" y="661"/>
      <point x="86" y="661" type="curve" smooth="yes"/>
      <point x="72" y="661"/>
      <point x="57" y="645"/>
      <point x="57" y="621" type="curve" smooth="yes"/>
      <point x="57" y="586"/>
      <point x="68" y="563"/>
      <point x="81" y="563" type="curve" smooth="yes"/>
      <point x="86" y="563"/>
      <point x="90" y="564"/>
      <point x="92" y="565" type="curve" smooth="yes"/>
      <point x="96" y="566"/>
      <point x="98" y="567"/>
      <point x="102" y="567" type="curve" smooth="yes"/>
      <point x="141" y="566"/>
      <point x="163" y="541"/>
      <point x="163" y="504" type="curve" smooth="yes"/>
      <point x="163" y="478"/>
      <point x="147" y="446"/>
      <point x="120" y="421" type="curve" smooth="yes"/>
      <point x="74" y="385"/>
      <point x="55" y="349"/>
      <point x="55" y="312" type="curve" smooth="yes"/>
      <point x="55" y="260"/>
      <point x="66" y="226"/>
      <point x="71" y="202" type="curve" smooth="yes"/>
      <point x="75" y="182"/>
      <point x="89" y="165"/>
      <point x="105" y="165" type="curve" smooth="yes"/>
      <point x="119" y="165"/>
      <point x="129" y="178"/>
    </contour>
    <contour>
      <point x="216" y="43" type="curve" smooth="yes"/>
      <point x="216" y="78"/>
      <point x="182" y="100"/>
      <point x="127" y="100" type="curve" smooth="yes"/>
      <point x="73" y="100"/>
      <point x="38" y="78"/>
      <point x="38" y="43" type="curve" smooth="yes"/>
      <point x="38" y="8"/>
      <point x="73" y="-14"/>
      <point x="127" y="-14" type="curve" smooth="yes"/>
      <point x="182" y="-14"/>
      <point x="216" y="8"/>
    </contour>
  </outline>
</glyph>
<glyph name="at" format="1">
  <advance width="596"/>
  <unicode hex="0040"/>
  <outline>
    <contour>
      <point x="518" y="-16" type="curve" smooth="yes"/>
      <point x="522" y="7"/>
      <point x="511" y="15"/>
      <point x="491" y="15" type="curve" smooth="yes"/>
      <point x="480" y="15"/>
      <point x="465" y="2"/>
      <point x="450" y="-9" type="curve" smooth="yes"/>
      <point x="398" y="-56"/>
      <point x="338" y="-80"/>
      <point x="297" y="-80" type="curve" smooth="yes"/>
      <point x="174" y="-80"/>
      <point x="87" y="33"/>
      <point x="87" y="222" type="curve" smooth="yes"/>
      <point x="87" y="401"/>
      <point x="195" y="518"/>
      <point x="314" y="518" type="curve" smooth="yes"/>
      <point x="430" y="518"/>
      <point x="510" y="416"/>
      <point x="510" y="250" type="curve" smooth="yes"/>
      <point x="510" y="159"/>
      <point x="490" y="116"/>
      <point x="482" y="116" type="curve" smooth="yes"/>
      <point x="462" y="116"/>
      <point x="455" y="131"/>
      <point x="455" y="148" type="curve" smooth="yes"/>
      <point x="455" y="158"/>
      <point x="454" y="168"/>
      <point x="455" y="177" type="curve"/>
      <point x="466" y="311" type="line" smooth="yes"/>
      <point x="467" y="329"/>
      <point x="472" y="373"/>
      <point x="477" y="399" type="curve"/>
      <point x="484" y="404"/>
      <point x="430" y="408"/>
      <point x="421" y="408" type="curve" smooth="yes"/>
      <point x="394" y="408"/>
      <point x="381" y="387"/>
      <point x="356" y="387" type="curve" smooth="yes"/>
      <point x="349" y="387"/>
      <point x="343" y="391"/>
      <point x="332" y="394" type="curve" smooth="yes"/>
      <point x="322" y="399"/>
      <point x="303" y="403"/>
      <point x="289" y="403" type="curve" smooth="yes"/>
      <point x="199" y="403"/>
      <point x="116" y="317"/>
      <point x="116" y="184" type="curve" smooth="yes"/>
      <point x="116" y="107"/>
      <point x="162" y="64"/>
      <point x="222" y="64" type="curve" smooth="yes"/>
      <point x="273" y="64"/>
      <point x="311" y="102"/>
      <point x="319" y="102" type="curve" smooth="yes"/>
      <point x="346" y="102"/>
      <point x="354" y="64"/>
      <point x="461" y="60" type="curve" smooth="yes"/>
      <point x="506" y="60"/>
      <point x="577" y="134"/>
      <point x="577" y="272" type="curve" smooth="yes"/>
      <point x="577" y="455"/>
      <point x="470" y="578"/>
      <point x="332" y="578" type="curve" smooth="yes"/>
      <point x="168" y="578"/>
      <point x="19" y="452"/>
      <point x="19" y="211" type="curve" smooth="yes"/>
      <point x="19" y="-8"/>
      <point x="139" y="-140"/>
      <point x="295" y="-140" type="curve" smooth="yes"/>
      <point x="406" y="-140"/>
      <point x="509" y="-67"/>
    </contour>
    <contour>
      <point x="269" y="205" type="curve" smooth="yes"/>
      <point x="271" y="302"/>
      <point x="289" y="352"/>
      <point x="304" y="352" type="curve" smooth="yes"/>
      <point x="317" y="352"/>
      <point x="322" y="332"/>
      <point x="322" y="296" type="curve" smooth="yes"/>
      <point x="322" y="292"/>
      <point x="322" y="288"/>
      <point x="322" y="285" type="curve"/>
      <point x="315" y="182" type="line" smooth="yes"/>
      <point x="312" y="152"/>
      <point x="307" y="142"/>
      <point x="304" y="134" type="curve" smooth="yes"/>
      <point x="298" y="121"/>
      <point x="294" y="112"/>
      <point x="287" y="112" type="curve" smooth="yes"/>
      <point x="276" y="112"/>
      <point x="267" y="134"/>
    </contour>
  </outline>
</glyph>
<glyph name="H" format="1">
  <advance width="649"/>
  <unicode hex="0048"/>
  <outline>
    <contour>
      <point x="156" y="3" type="curve" smooth="yes"/>
      <point x="209" y="3"/>
      <point x="230" y="-5"/>
      <point x="292" y="-5" type="curve" smooth="yes"/>
      <point x="302" y="-5"/>
      <point x="308" y="3"/>
      <point x="308" y="16" type="curve" smooth="yes"/>
      <point x="308" y="31"/>
      <point x="305" y="35"/>
      <point x="295" y="42" type="curve" smooth="yes"/>
      <point x="275" y="51"/>
      <point x="262" y="72"/>
      <point x="262" y="134" type="curve" smooth="yes"/>
      <point x="262" y="287" type="line" smooth="yes"/>
      <point x="262" y="293"/>
      <point x="263" y="295"/>
      <point x="267" y="295" type="curve" smooth="yes"/>
      <point x="382" y="295" type="line" smooth="yes"/>
      <point x="384" y="295"/>
      <point x="387" y="297"/>
      <point x="387" y="292" type="curve" smooth="yes"/>
      <point x="387" y="141" type="line" smooth="yes"/>
      <point x="387" y="79"/>
      <point x="378" y="51"/>
      <point x="355" y="40" type="curve" smooth="yes"/>
      <point x="345" y="35"/>
      <point x="341" y="31"/>
      <point x="341" y="16" type="curve" smooth="yes"/>
      <point x="341" y="3"/>
      <point x="348" y="-5"/>
      <point x="358" y="-5" type="curve" smooth="yes"/>
      <point x="423" y="-5"/>
      <point x="440" y="3"/>
      <point x="492" y="3" type="curve" smooth="yes"/>
      <point x="542" y="3"/>
      <point x="555" y="-5"/>
      <point x="620" y="-5" type="curve" smooth="yes"/>
      <point x="630" y="-5"/>
      <point x="637" y="3"/>
      <point x="637" y="16" type="curve" smooth="yes"/>
      <point x="637" y="31"/>
      <point x="633" y="35"/>
      <point x="623" y="42" type="curve" smooth="yes"/>
      <point x="603" y="51"/>
      <point x="597" y="61"/>
      <point x="597" y="125" type="curve" smooth="yes"/>
      <point x="597" y="527" type="line" smooth="yes"/>
      <point x="597" y="593"/>
      <point x="603" y="600"/>
      <point x="621" y="608" type="curve" smooth="yes"/>
      <point x="631" y="612"/>
      <point x="634" y="620"/>
      <point x="634" y="634" type="curve" smooth="yes"/>
      <point x="634" y="647"/>
      <point x="628" y="655"/>
      <point x="617" y="655" type="curve" smooth="yes"/>
      <point x="550" y="655"/>
      <point x="540" y="648"/>
      <point x="492" y="648" type="curve" smooth="yes"/>
      <point x="441" y="648"/>
      <point x="426" y="655"/>
      <point x="361" y="655" type="curve" smooth="yes"/>
      <point x="349" y="655"/>
      <point x="344" y="647"/>
      <point x="344" y="634" type="curve" smooth="yes"/>
      <point x="344" y="620"/>
      <point x="347" y="614"/>
      <point x="356" y="610" type="curve" smooth="yes"/>
      <point x="372" y="602"/>
      <point x="387" y="586"/>
      <point x="387" y="530" type="curve" smooth="yes"/>
      <point x="387" y="361" type="line" smooth="yes"/>
      <point x="387" y="358"/>
      <point x="379" y="357"/>
      <point x="375" y="357" type="curve" smooth="yes"/>
      <point x="269" y="357" type="line" smooth="yes"/>
      <point x="265" y="357"/>
      <point x="262" y="359"/>
      <point x="262" y="366" type="curve" smooth="yes"/>
      <point x="262" y="531" type="line" smooth="yes"/>
      <point x="262" y="571"/>
      <point x="279" y="599"/>
      <point x="297" y="608" type="curve" smooth="yes"/>
      <point x="308" y="612"/>
      <point x="310" y="620"/>
      <point x="310" y="634" type="curve" smooth="yes"/>
      <point x="310" y="647"/>
      <point x="303" y="655"/>
      <point x="293" y="655" type="curve" smooth="yes"/>
      <point x="229" y="655"/>
      <point x="211" y="648"/>
      <point x="157" y="648" type="curve" smooth="yes"/>
      <point x="108" y="648"/>
      <point x="94" y="655"/>
      <point x="28" y="655" type="curve" smooth="yes"/>
      <point x="18" y="655"/>
      <point x="11" y="647"/>
      <point x="11" y="634" type="curve" smooth="yes"/>
      <point x="11" y="620"/>
      <point x="15" y="614"/>
      <point x="24" y="608" type="curve" smooth="yes"/>
      <point x="41" y="596"/>
      <point x="51" y="584"/>
      <point x="51" y="528" type="curve" smooth="yes"/>
      <point x="51" y="126" type="line" smooth="yes"/>
      <point x="51" y="67"/>
      <point x="47" y="52"/>
      <point x="26" y="42" type="curve" smooth="yes"/>
      <point x="16" y="35"/>
      <point x="12" y="31"/>
      <point x="12" y="16" type="curve" smooth="yes"/>
      <point x="12" y="3"/>
      <point x="19" y="-5"/>
      <point x="29" y="-5" type="curve" smooth="yes"/>
      <point x="91" y="-5"/>
      <point x="107" y="3"/>
    </contour>
  </outline>
</glyph>
<glyph name="J" format="1">
  <advance width="359"/>
  <unicode hex="004A"/>
  <outline>
    <contour>
      <point x="216" y="-148" type="curve" smooth="yes"/>
      <point x="255" y="-105"/>
      <point x="287" y="-33"/>
      <point x="287" y="47" type="curve" smooth="yes"/>
      <point x="287" y="516" type="line" smooth="yes"/>
      <point x="287" y="573"/>
      <point x="304" y="592"/>
      <point x="329" y="603" type="curve" smooth="yes"/>
      <point x="340" y="609"/>
      <point x="345" y="621"/>
      <point x="345" y="635" type="curve" smooth="yes"/>
      <point x="345" y="648"/>
      <point x="339" y="653"/>
      <point x="331" y="653" type="curve" smooth="yes"/>
      <point x="262" y="653"/>
      <point x="245" y="648"/>
      <point x="190" y="648" type="curve" smooth="yes"/>
      <point x="131" y="648"/>
      <point x="110" y="653"/>
      <point x="41" y="653" type="curve" smooth="yes"/>
      <point x="34" y="653"/>
      <point x="27" y="648"/>
      <point x="27" y="635" type="curve" smooth="yes"/>
      <point x="27" y="621"/>
      <point x="32" y="609"/>
      <point x="44" y="603" type="curve" smooth="yes"/>
      <point x="69" y="592"/>
      <point x="77" y="573"/>
      <point x="77" y="516" type="curve" smooth="yes"/>
      <point x="77" y="-1" type="line" smooth="yes"/>
      <point x="77" y="-87"/>
      <point x="69" y="-140"/>
      <point x="45" y="-140" type="curve" smooth="yes"/>
      <point x="35" y="-140"/>
      <point x="30" y="-134"/>
      <point x="26" y="-122" type="curve" smooth="yes"/>
      <point x="20" y="-111"/>
      <point x="17" y="-104"/>
      <point x="-3" y="-104" type="curve" smooth="yes"/>
      <point x="-25" y="-104"/>
      <point x="-39" y="-127"/>
      <point x="-39" y="-151" type="curve" smooth="yes"/>
      <point x="-39" y="-182"/>
      <point x="6" y="-200"/>
      <point x="95" y="-200" type="curve" smooth="yes"/>
      <point x="147" y="-200"/>
      <point x="186" y="-180"/>
    </contour>
  </outline>
</glyph>
<glyph name="K" format="1">
  <advance width="677"/>
  <unicode hex="004B"/>
  <outline>
    <contour>
      <point x="169" y="4" type="curve" smooth="yes"/>
      <point x="215" y="4"/>
      <point x="235" y="-5"/>
      <point x="288" y="-5" type="curve" smooth="yes"/>
      <point x="305" y="-5"/>
      <point x="316" y="2"/>
      <point x="316" y="15" type="curve" smooth="yes"/>
      <point x="316" y="30"/>
      <point x="313" y="35"/>
      <point x="303" y="42" type="curve" smooth="yes"/>
      <point x="287" y="54"/>
      <point x="265" y="77"/>
      <point x="266" y="135" type="curve" smooth="yes"/>
      <point x="267" y="191"/>
      <point x="267" y="216"/>
      <point x="267" y="279" type="curve" smooth="yes"/>
      <point x="267" y="286"/>
      <point x="267" y="300"/>
      <point x="270" y="300" type="curve" smooth="yes"/>
      <point x="272" y="300"/>
      <point x="278" y="291"/>
      <point x="281" y="283" type="curve"/>
      <point x="371" y="78" type="line" smooth="yes"/>
      <point x="371" y="73"/>
      <point x="373" y="68"/>
      <point x="373" y="63" type="curve" smooth="yes"/>
      <point x="373" y="58"/>
      <point x="372" y="54"/>
      <point x="369" y="50" type="curve"/>
      <point x="359" y="43"/>
      <point x="356" y="36"/>
      <point x="356" y="19" type="curve" smooth="yes"/>
      <point x="356" y="4"/>
      <point x="368" y="-1"/>
      <point x="384" y="-1" type="curve" smooth="yes"/>
      <point x="429" y="-1"/>
      <point x="452" y="0"/>
      <point x="477" y="0" type="curve" smooth="yes"/>
      <point x="532" y="0"/>
      <point x="599" y="-5"/>
      <point x="658" y="-5" type="curve" smooth="yes"/>
      <point x="675" y="-5"/>
      <point x="687" y="0"/>
      <point x="687" y="15" type="curve" smooth="yes"/>
      <point x="687" y="32"/>
      <point x="682" y="39"/>
      <point x="663" y="46" type="curve" smooth="yes"/>
      <point x="634" y="59"/>
      <point x="624" y="64"/>
      <point x="600" y="111" type="curve" smooth="yes"/>
      <point x="437" y="418" type="line" smooth="yes"/>
      <point x="433" y="425"/>
      <point x="432" y="431"/>
      <point x="435" y="436" type="curve"/>
      <point x="449" y="490"/>
      <point x="455" y="504"/>
      <point x="469" y="546" type="curve" smooth="yes"/>
      <point x="500" y="581"/>
      <point x="566" y="594"/>
      <point x="616" y="601" type="curve" smooth="yes"/>
      <point x="649" y="607"/>
      <point x="659" y="621"/>
      <point x="659" y="636" type="curve" smooth="yes"/>
      <point x="659" y="648"/>
      <point x="649" y="655"/>
      <point x="636" y="655" type="curve" smooth="yes"/>
      <point x="623" y="655"/>
      <point x="520" y="651"/>
      <point x="461" y="651" type="curve" smooth="yes"/>
      <point x="392" y="651" type="line" smooth="yes"/>
      <point x="373" y="651"/>
      <point x="360" y="646"/>
      <point x="360" y="633" type="curve" smooth="yes"/>
      <point x="360" y="618"/>
      <point x="362" y="610"/>
      <point x="373" y="601" type="curve" smooth="yes"/>
      <point x="376" y="599"/>
      <point x="376" y="594"/>
      <point x="376" y="587" type="curve" smooth="yes"/>
      <point x="376" y="581"/>
      <point x="375" y="575"/>
      <point x="374" y="568" type="curve" smooth="yes"/>
      <point x="283" y="387" type="line"/>
      <point x="280" y="379"/>
      <point x="274" y="369"/>
      <point x="271" y="369" type="curve" smooth="yes"/>
      <point x="267" y="369"/>
      <point x="267" y="383"/>
      <point x="267" y="388" type="curve" smooth="yes"/>
      <point x="267" y="518" type="line" smooth="yes"/>
      <point x="267" y="565"/>
      <point x="275" y="591"/>
      <point x="292" y="602" type="curve" smooth="yes"/>
      <point x="303" y="608"/>
      <point x="308" y="621"/>
      <point x="308" y="634" type="curve" smooth="yes"/>
      <point x="308" y="646"/>
      <point x="294" y="653"/>
      <point x="276" y="653" type="curve" smooth="yes"/>
      <point x="218" y="653"/>
      <point x="214" y="650"/>
      <point x="172" y="650" type="curve" smooth="yes"/>
      <point x="124" y="650"/>
      <point x="109" y="653"/>
      <point x="49" y="653" type="curve" smooth="yes"/>
      <point x="31" y="653"/>
      <point x="17" y="649"/>
      <point x="17" y="637" type="curve" smooth="yes"/>
      <point x="17" y="624"/>
      <point x="22" y="614"/>
      <point x="30" y="608" type="curve" smooth="yes"/>
      <point x="51" y="596"/>
      <point x="58" y="582"/>
      <point x="58" y="528" type="curve" smooth="yes"/>
      <point x="58" y="127" type="line" smooth="yes"/>
      <point x="58" y="72"/>
      <point x="55" y="52"/>
      <point x="34" y="42" type="curve" smooth="yes"/>
      <point x="25" y="37"/>
      <point x="21" y="30"/>
      <point x="21" y="15" type="curve" smooth="yes"/>
      <point x="21" y="2"/>
      <point x="35" y="-5"/>
      <point x="52" y="-5" type="curve" smooth="yes"/>
      <point x="111" y="-5"/>
      <point x="122" y="4"/>
    </contour>
  </outline>
</glyph>
<glyph name="L" format="1">
  <advance width="445"/>
  <unicode hex="004C"/>
  <outline>
    <contour>
      <point x="135" y="0" type="curve" smooth="yes"/>
      <point x="210" y="0"/>
      <point x="313" y="-5"/>
      <point x="414" y="-5" type="curve" smooth="yes"/>
      <point x="422" y="-5"/>
      <point x="424" y="3"/>
      <point x="425" y="12" type="curve" smooth="yes"/>
      <point x="431" y="63"/>
      <point x="432" y="102"/>
      <point x="439" y="157" type="curve"/>
      <point x="440" y="162"/>
      <point x="440" y="166"/>
      <point x="440" y="171" type="curve" smooth="yes"/>
      <point x="440" y="182"/>
      <point x="432" y="189"/>
      <point x="421" y="189" type="curve" smooth="yes"/>
      <point x="409" y="189"/>
      <point x="402" y="183"/>
      <point x="391" y="150" type="curve" smooth="yes"/>
      <point x="385" y="121"/>
      <point x="383" y="110"/>
      <point x="372" y="86" type="curve" smooth="yes"/>
      <point x="367" y="74"/>
      <point x="356" y="60"/>
      <point x="341" y="60" type="curve" smooth="yes"/>
      <point x="313" y="60" type="line" smooth="yes"/>
      <point x="280" y="60"/>
      <point x="274" y="80"/>
      <point x="274" y="121" type="curve" smooth="yes"/>
      <point x="274" y="548" type="line" smooth="yes"/>
      <point x="274" y="587"/>
      <point x="294" y="594"/>
      <point x="313" y="603" type="curve" smooth="yes"/>
      <point x="330" y="609"/>
      <point x="336" y="621"/>
      <point x="336" y="635" type="curve" smooth="yes"/>
      <point x="336" y="648"/>
      <point x="322" y="653"/>
      <point x="305" y="653" type="curve" smooth="yes"/>
      <point x="245" y="653"/>
      <point x="221" y="650"/>
      <point x="169" y="650" type="curve" smooth="yes"/>
      <point x="121" y="650"/>
      <point x="106" y="653"/>
      <point x="47" y="653" type="curve" smooth="yes"/>
      <point x="30" y="653"/>
      <point x="17" y="648"/>
      <point x="17" y="635" type="curve" smooth="yes"/>
      <point x="17" y="621"/>
      <point x="21" y="607"/>
      <point x="33" y="603" type="curve" smooth="yes"/>
      <point x="58" y="593"/>
      <point x="64" y="589"/>
      <point x="64" y="541" type="curve" smooth="yes"/>
      <point x="64" y="114" type="line" smooth="yes"/>
      <point x="64" y="70"/>
      <point x="49" y="52"/>
      <point x="30" y="43" type="curve"/>
      <point x="21" y="40"/>
      <point x="12" y="34"/>
      <point x="12" y="14" type="curve" smooth="yes"/>
      <point x="12" y="3"/>
      <point x="20" y="-5"/>
      <point x="33" y="-5" type="curve"/>
      <point x="33" y="-5"/>
      <point x="97" y="0"/>
    </contour>
  </outline>
</glyph>
<glyph name="bracketleft" format="1">
  <advance width="257"/>
  <unicode hex="005B"/>
  <outline>
    <contour>
      <point x="220" y="-199" type="line" smooth="yes"/>
      <point x="232" y="-199"/>
      <point x="246" y="-194"/>
      <point x="246" y="-174" type="curve" smooth="yes"/>
      <point x="246" y="-154"/>
      <point x="229" y="-143"/>
      <point x="212" y="-144" type="curve"/>
      <point x="204" y="-149" type="line" smooth="yes"/>
      <point x="181" y="-148"/>
      <point x="171" y="-130"/>
      <point x="171" y="-97" type="curve" smooth="yes"/>
      <point x="171" y="600" type="line" smooth="yes"/>
      <point x="171" y="638"/>
      <point x="178" y="648"/>
      <point x="204" y="649" type="curve" smooth="yes"/>
      <point x="212" y="647" type="line" smooth="yes"/>
      <point x="231" y="647"/>
      <point x="246" y="658"/>
      <point x="246" y="676" type="curve" smooth="yes"/>
      <point x="246" y="696"/>
      <point x="234" y="701"/>
      <point x="223" y="701" type="curve" smooth="yes"/>
      <point x="99" y="702" type="line" smooth="yes"/>
      <point x="67" y="702"/>
      <point x="61" y="702"/>
      <point x="61" y="668" type="curve" smooth="yes"/>
      <point x="61" y="-169" type="line" smooth="yes"/>
      <point x="61" y="-200"/>
      <point x="68" y="-200"/>
      <point x="97" y="-200" type="curve" smooth="yes"/>
    </contour>
  </outline>
</glyph>
<glyph name="backslash" format="1">
  <advance width="225"/>
  <unicode hex="005C"/>
  <outline>
    <contour>
      <point x="212" y="-46" type="curve" smooth="yes"/>
      <point x="82" y="636" type="line" smooth="yes"/>
      <point x="78" y="655"/>
      <point x="58" y="664"/>
      <point x="38" y="664" type="curve" smooth="yes"/>
      <point x="22" y="664"/>
      <point x="15" y="658"/>
      <point x="18" y="646" type="curve" smooth="yes"/>
      <point x="148" y="-34" type="line" smooth="yes"/>
      <point x="152" y="-52"/>
      <point x="172" y="-62"/>
      <point x="190" y="-62" type="curve" smooth="yes"/>
      <point x="207" y="-62"/>
      <point x="215" y="-57"/>
    </contour>
  </outline>
</glyph>
<glyph name="grave" format="1">
  <advance width="206"/>
  <unicode hex="0060"/>
  <outline>
    <contour>
      <point x="192" y="508" type="curve" smooth="yes"/>
      <point x="191" y="516"/>
      <point x="191" y="526"/>
      <point x="186" y="538" type="curve" smooth="yes"/>
      <point x="181" y="574"/>
      <point x="177" y="636"/>
      <point x="167" y="670" type="curve" smooth="yes"/>
      <point x="155" y="696"/>
      <point x="132" y="709"/>
      <point x="96" y="709" type="curve" smooth="yes"/>
      <point x="49" y="709"/>
      <point x="13" y="709"/>
      <point x="12" y="693" type="curve" smooth="yes"/>
      <point x="10" y="686"/>
      <point x="16" y="678"/>
      <point x="24" y="666" type="curve" smooth="yes"/>
      <point x="64" y="605"/>
      <point x="60" y="579"/>
      <point x="103" y="530" type="curve" smooth="yes"/>
      <point x="132" y="499"/>
      <point x="157" y="487"/>
      <point x="171" y="486" type="curve" smooth="yes"/>
      <point x="187" y="484"/>
      <point x="195" y="489"/>
    </contour>
  </outline>
</glyph>
<glyph name="e" format="1">
  <advance width="373"/>
  <unicode hex="0065"/>
  <outline>
    <contour>
      <point x="325" y="29" type="curve" smooth="yes"/>
      <point x="347" y="47"/>
      <point x="362" y="75"/>
      <point x="362" y="105" type="curve" smooth="yes"/>
      <point x="362" y="115"/>
      <point x="358" y="123"/>
      <point x="350" y="123" type="curve" smooth="yes"/>
      <point x="345" y="123"/>
      <point x="341" y="120"/>
      <point x="332" y="105" type="curve" smooth="yes"/>
      <point x="312" y="68"/>
      <point x="286" y="48"/>
      <point x="257" y="48" type="curve" smooth="yes"/>
      <point x="201" y="48"/>
      <point x="166" y="130"/>
      <point x="166" y="237" type="curve" smooth="yes"/>
      <point x="166" y="272"/>
      <point x="169" y="279"/>
      <point x="178" y="279" type="curve" smooth="yes"/>
      <point x="331" y="279" type="line" smooth="yes"/>
      <point x="351" y="279"/>
      <point x="360" y="290"/>
      <point x="360" y="314" type="curve" smooth="yes"/>
      <point x="360" y="400"/>
      <point x="302" y="462"/>
      <point x="223" y="462" type="curve" smooth="yes"/>
      <point x="112" y="462"/>
      <point x="17" y="356"/>
      <point x="17" y="228" type="curve" smooth="yes"/>
      <point x="17" y="83"/>
      <point x="94" y="-13"/>
      <point x="213" y="-13" type="curve" smooth="yes"/>
      <point x="256" y="-13"/>
      <point x="296" y="2"/>
    </contour>
    <contour>
      <point x="177" y="331" type="curve" smooth="yes"/>
      <point x="177" y="369"/>
      <point x="197" y="413"/>
      <point x="216" y="413" type="curve" smooth="yes"/>
      <point x="234" y="413"/>
      <point x="249" y="383"/>
      <point x="249" y="347" type="curve" smooth="yes"/>
      <point x="249" y="334"/>
      <point x="248" y="327"/>
      <point x="245" y="326" type="curve" smooth="yes"/>
      <point x="237" y="323"/>
      <point x="229" y="321"/>
      <point x="217" y="321" type="curve" smooth="yes"/>
      <point x="182" y="321" type="line" smooth="yes"/>
      <point x="179" y="321"/>
      <point x="177" y="324"/>
    </contour>
  </outline>
</glyph>
<glyph name="braceleft" format="1">
  <advance width="296"/>
  <unicode hex="007B"/>
  <outline>
    <contour>
      <point x="273" y="-127" type="curve" smooth="yes"/>
      <point x="273" y="-107"/>
      <point x="262" y="-99"/>
      <point x="245" y="-96" type="curve" smooth="yes"/>
      <point x="225" y="-90"/>
      <point x="207" y="-79"/>
      <point x="207" y="-12" type="curve" smooth="yes"/>
      <point x="207" y="53"/>
      <point x="214" y="98"/>
      <point x="214" y="154" type="curve" smooth="yes"/>
      <point x="214" y="217"/>
      <point x="195" y="271"/>
      <point x="132" y="280" type="curve"/>
      <point x="130" y="281"/>
      <point x="127" y="282"/>
      <point x="130" y="284" type="curve"/>
      <point x="195" y="296"/>
      <point x="214" y="346"/>
      <point x="214" y="409" type="curve" smooth="yes"/>
      <point x="214" y="463"/>
      <point x="207" y="507"/>
      <point x="207" y="570" type="curve" smooth="yes"/>
      <point x="207" y="637"/>
      <point x="223" y="650"/>
      <point x="245" y="655" type="curve" smooth="yes"/>
      <point x="261" y="657"/>
      <point x="271" y="665"/>
      <point x="271" y="685" type="curve" smooth="yes"/>
      <point x="271" y="702"/>
      <point x="262" y="715"/>
      <point x="241" y="714" type="curve" smooth="yes"/>
      <point x="163" y="711"/>
      <point x="79" y="678"/>
      <point x="79" y="582" type="curve" smooth="yes"/>
      <point x="79" y="514"/>
      <point x="85" y="469"/>
      <point x="85" y="408" type="curve" smooth="yes"/>
      <point x="85" y="351"/>
      <point x="79" y="332"/>
      <point x="57" y="323" type="curve" smooth="yes"/>
      <point x="26" y="313"/>
      <point x="22" y="299"/>
      <point x="22" y="282" type="curve" smooth="yes"/>
      <point x="22" y="262"/>
      <point x="27" y="250"/>
      <point x="57" y="244" type="curve" smooth="yes"/>
      <point x="83" y="237"/>
      <point x="85" y="217"/>
      <point x="85" y="159" type="curve" smooth="yes"/>
      <point x="85" y="97"/>
      <point x="79" y="51"/>
      <point x="79" y="-24" type="curve" smooth="yes"/>
      <point x="79" y="-120"/>
      <point x="164" y="-151"/>
      <point x="243" y="-156" type="curve" smooth="yes"/>
      <point x="263" y="-157"/>
      <point x="273" y="-143"/>
    </contour>
  </outline>
</glyph>
<glyph name="asciitilde" format="1">
  <advance width="257"/>
  <unicode hex="007E"/>
  <outline>
    <contour>
      <point x="245" y="378" type="curve" smooth="yes"/>
      <point x="245" y="404"/>
      <point x="238" y="416"/>
      <point x="220" y="416" type="curve" smooth="yes"/>
      <point x="216" y="416"/>
      <point x="199" y="353"/>
      <point x="176" y="353" type="curve" smooth="yes"/>
      <point x="169" y="353"/>
      <point x="159" y="367"/>
      <point x="145" y="381" type="curve" smooth="yes"/>
      <point x="130" y="398"/>
      <point x="112" y="415"/>
      <point x="89" y="415" type="curve" smooth="yes"/>
      <point x="44" y="415"/>
      <point x="14" y="340"/>
      <point x="14" y="320" type="curve" smooth="yes"/>
      <point x="14" y="302"/>
      <point x="20" y="290"/>
      <point x="37" y="290" type="curve" smooth="yes"/>
      <point x="40" y="290"/>
      <point x="57" y="345"/>
      <point x="82" y="345" type="curve" smooth="yes"/>
      <point x="93" y="345"/>
      <point x="104" y="333"/>
      <point x="117" y="320" type="curve" smooth="yes"/>
      <point x="132" y="302"/>
      <point x="150" y="285"/>
      <point x="170" y="285" type="curve" smooth="yes"/>
      <point x="199" y="285"/>
      <point x="245" y="343"/>
    </contour>
  </outline>
</glyph>
